<svg width="640" height="720" viewBox="0 0 640 720" fill="none" xmlns="http://www.w3.org/2000/svg">
  <defs>
    <linearGradient id="bg" x1="80" y1="50" x2="560" y2="690" gradientUnits="userSpaceOnUse">
      <stop stop-color="#3CB5FF"/>
      <stop offset="1" stop-color="#42C5A7"/>
    </linearGradient>
    <linearGradient id="card" x1="140" y1="30" x2="500" y2="640" gradientUnits="userSpaceOnUse">
      <stop stop-color="#E2F0FF" stop-opacity="0.85"/>
      <stop offset="1" stop-color="#B7E5DE" stop-opacity="0.8"/>
    </linearGradient>
    <filter id="shadow" x="150" y="200" width="340" height="360" filterUnits="userSpaceOnUse" color-interpolation-filters="sRGB">
      <feDropShadow dx="0" dy="24" stdDeviation="22" flood-color="#0B3B4A" flood-opacity="0.28"/>
    </filter>
  </defs>
  <rect x="8" y="8" width="624" height="704" rx="48" fill="url(#bg)"/>
  <rect x="32" y="32" width="576" height="664" rx="40" fill="url(#card)"/>
  <g filter="url(#shadow)">
    <path d="M240 224C240 205.909 254.909 191 273 191H367C385.091 191 400 205.909 400 224V430C400 450.091 383.091 467 363 467H277C256.909 467 240 450.091 240 430V224Z" fill="white"/>
    <path d="M260 206C260 197.716 266.716 191 275 191H365C373.284 191 380 197.716 380 206V228C380 236.284 373.284 243 365 243H275C266.716 243 260 236.284 260 228V206Z" fill="#F5F7FA"/>
    <path d="M250 428H390C387 454 375 470 354 476C335 481 305 481 286 476C265 470 253 454 250 428Z" fill="#ECF1F5"/>
    <path d="M264 240H376C380.418 240 384 243.582 384 248C384 252.418 380.418 256 376 256H264C259.582 256 256 252.418 256 248C256 243.582 259.582 240 264 240Z" fill="#DDE7EF"/>
  </g>
  <rect x="222" y="582" width="196" height="46" rx="23" fill="#E3F4F1" stroke="#D2E8E3" stroke-width="2"/>
  <text x="320" y="611" text-anchor="middle" fill="#0f172a" font-family="Inter, system-ui, -apple-system, sans-serif" font-size="14" font-weight="600">Smart toilet module</text>
</svg>
